%TF.GenerationSoftware,KiCad,Pcbnew,9.0.6*%
%TF.CreationDate,2026-07-30T12:35:04+01:00*%
%TF.ProjectId,rf_remote_EV1527,72665f72-656d-46f7-9465-5f4556313532,rev?*%
%TF.SameCoordinates,Original*%
%TF.FileFunction,Legend,Bot*%
%TF.FilePolarity,Positive*%
%FSLAX46Y46*%
G04 Gerber Fmt 4.6, Leading zero omitted, Abs format (unit mm)*
G04 Created by KiCad (PCBNEW 9.0.6) date 2026-07-30 12:35:04*
%MOMM*%
%LPD*%
G01*
G04 APERTURE LIST*
%ADD10C,0.150000*%
%ADD11C,0.120000*%
%ADD12C,0.203200*%
G04 APERTURE END LIST*
D10*
X205913332Y-70707200D02*
X205770475Y-70754819D01*
X205770475Y-70754819D02*
X205532380Y-70754819D01*
X205532380Y-70754819D02*
X205437142Y-70707200D01*
X205437142Y-70707200D02*
X205389523Y-70659580D01*
X205389523Y-70659580D02*
X205341904Y-70564342D01*
X205341904Y-70564342D02*
X205341904Y-70469104D01*
X205341904Y-70469104D02*
X205389523Y-70373866D01*
X205389523Y-70373866D02*
X205437142Y-70326247D01*
X205437142Y-70326247D02*
X205532380Y-70278628D01*
X205532380Y-70278628D02*
X205722856Y-70231009D01*
X205722856Y-70231009D02*
X205818094Y-70183390D01*
X205818094Y-70183390D02*
X205865713Y-70135771D01*
X205865713Y-70135771D02*
X205913332Y-70040533D01*
X205913332Y-70040533D02*
X205913332Y-69945295D01*
X205913332Y-69945295D02*
X205865713Y-69850057D01*
X205865713Y-69850057D02*
X205818094Y-69802438D01*
X205818094Y-69802438D02*
X205722856Y-69754819D01*
X205722856Y-69754819D02*
X205484761Y-69754819D01*
X205484761Y-69754819D02*
X205341904Y-69802438D01*
X205008570Y-69754819D02*
X204770475Y-70754819D01*
X204770475Y-70754819D02*
X204579999Y-70040533D01*
X204579999Y-70040533D02*
X204389523Y-70754819D01*
X204389523Y-70754819D02*
X204151428Y-69754819D01*
X203246666Y-70754819D02*
X203818094Y-70754819D01*
X203532380Y-70754819D02*
X203532380Y-69754819D01*
X203532380Y-69754819D02*
X203627618Y-69897676D01*
X203627618Y-69897676D02*
X203722856Y-69992914D01*
X203722856Y-69992914D02*
X203818094Y-70040533D01*
X203766666Y-78759580D02*
X203814285Y-78807200D01*
X203814285Y-78807200D02*
X203957142Y-78854819D01*
X203957142Y-78854819D02*
X204052380Y-78854819D01*
X204052380Y-78854819D02*
X204195237Y-78807200D01*
X204195237Y-78807200D02*
X204290475Y-78711961D01*
X204290475Y-78711961D02*
X204338094Y-78616723D01*
X204338094Y-78616723D02*
X204385713Y-78426247D01*
X204385713Y-78426247D02*
X204385713Y-78283390D01*
X204385713Y-78283390D02*
X204338094Y-78092914D01*
X204338094Y-78092914D02*
X204290475Y-77997676D01*
X204290475Y-77997676D02*
X204195237Y-77902438D01*
X204195237Y-77902438D02*
X204052380Y-77854819D01*
X204052380Y-77854819D02*
X203957142Y-77854819D01*
X203957142Y-77854819D02*
X203814285Y-77902438D01*
X203814285Y-77902438D02*
X203766666Y-77950057D01*
X202766666Y-78854819D02*
X203099999Y-78378628D01*
X203338094Y-78854819D02*
X203338094Y-77854819D01*
X203338094Y-77854819D02*
X202957142Y-77854819D01*
X202957142Y-77854819D02*
X202861904Y-77902438D01*
X202861904Y-77902438D02*
X202814285Y-77950057D01*
X202814285Y-77950057D02*
X202766666Y-78045295D01*
X202766666Y-78045295D02*
X202766666Y-78188152D01*
X202766666Y-78188152D02*
X202814285Y-78283390D01*
X202814285Y-78283390D02*
X202861904Y-78331009D01*
X202861904Y-78331009D02*
X202957142Y-78378628D01*
X202957142Y-78378628D02*
X203338094Y-78378628D01*
X201814285Y-78854819D02*
X202385713Y-78854819D01*
X202099999Y-78854819D02*
X202099999Y-77854819D01*
X202099999Y-77854819D02*
X202195237Y-77997676D01*
X202195237Y-77997676D02*
X202290475Y-78092914D01*
X202290475Y-78092914D02*
X202385713Y-78140533D01*
X195384819Y-74049405D02*
X194384819Y-74049405D01*
X194384819Y-74049405D02*
X194384819Y-74287500D01*
X194384819Y-74287500D02*
X194432438Y-74430357D01*
X194432438Y-74430357D02*
X194527676Y-74525595D01*
X194527676Y-74525595D02*
X194622914Y-74573214D01*
X194622914Y-74573214D02*
X194813390Y-74620833D01*
X194813390Y-74620833D02*
X194956247Y-74620833D01*
X194956247Y-74620833D02*
X195146723Y-74573214D01*
X195146723Y-74573214D02*
X195241961Y-74525595D01*
X195241961Y-74525595D02*
X195337200Y-74430357D01*
X195337200Y-74430357D02*
X195384819Y-74287500D01*
X195384819Y-74287500D02*
X195384819Y-74049405D01*
X194384819Y-74954167D02*
X194384819Y-75573214D01*
X194384819Y-75573214D02*
X194765771Y-75239881D01*
X194765771Y-75239881D02*
X194765771Y-75382738D01*
X194765771Y-75382738D02*
X194813390Y-75477976D01*
X194813390Y-75477976D02*
X194861009Y-75525595D01*
X194861009Y-75525595D02*
X194956247Y-75573214D01*
X194956247Y-75573214D02*
X195194342Y-75573214D01*
X195194342Y-75573214D02*
X195289580Y-75525595D01*
X195289580Y-75525595D02*
X195337200Y-75477976D01*
X195337200Y-75477976D02*
X195384819Y-75382738D01*
X195384819Y-75382738D02*
X195384819Y-75097024D01*
X195384819Y-75097024D02*
X195337200Y-75001786D01*
X195337200Y-75001786D02*
X195289580Y-74954167D01*
X198854819Y-80238095D02*
X199664342Y-80238095D01*
X199664342Y-80238095D02*
X199759580Y-80285714D01*
X199759580Y-80285714D02*
X199807200Y-80333333D01*
X199807200Y-80333333D02*
X199854819Y-80428571D01*
X199854819Y-80428571D02*
X199854819Y-80619047D01*
X199854819Y-80619047D02*
X199807200Y-80714285D01*
X199807200Y-80714285D02*
X199759580Y-80761904D01*
X199759580Y-80761904D02*
X199664342Y-80809523D01*
X199664342Y-80809523D02*
X198854819Y-80809523D01*
X198950057Y-81238095D02*
X198902438Y-81285714D01*
X198902438Y-81285714D02*
X198854819Y-81380952D01*
X198854819Y-81380952D02*
X198854819Y-81619047D01*
X198854819Y-81619047D02*
X198902438Y-81714285D01*
X198902438Y-81714285D02*
X198950057Y-81761904D01*
X198950057Y-81761904D02*
X199045295Y-81809523D01*
X199045295Y-81809523D02*
X199140533Y-81809523D01*
X199140533Y-81809523D02*
X199283390Y-81761904D01*
X199283390Y-81761904D02*
X199854819Y-81190476D01*
X199854819Y-81190476D02*
X199854819Y-81809523D01*
X209743573Y-73854819D02*
X209743573Y-74569104D01*
X209743573Y-74569104D02*
X209791192Y-74711961D01*
X209791192Y-74711961D02*
X209886430Y-74807200D01*
X209886430Y-74807200D02*
X210029287Y-74854819D01*
X210029287Y-74854819D02*
X210124525Y-74854819D01*
X209267382Y-74854819D02*
X209267382Y-73854819D01*
X209267382Y-73854819D02*
X208886430Y-73854819D01*
X208886430Y-73854819D02*
X208791192Y-73902438D01*
X208791192Y-73902438D02*
X208743573Y-73950057D01*
X208743573Y-73950057D02*
X208695954Y-74045295D01*
X208695954Y-74045295D02*
X208695954Y-74188152D01*
X208695954Y-74188152D02*
X208743573Y-74283390D01*
X208743573Y-74283390D02*
X208791192Y-74331009D01*
X208791192Y-74331009D02*
X208886430Y-74378628D01*
X208886430Y-74378628D02*
X209267382Y-74378628D01*
X207743573Y-74854819D02*
X208315001Y-74854819D01*
X208029287Y-74854819D02*
X208029287Y-73854819D01*
X208029287Y-73854819D02*
X208124525Y-73997676D01*
X208124525Y-73997676D02*
X208219763Y-74092914D01*
X208219763Y-74092914D02*
X208315001Y-74140533D01*
X194941666Y-88789580D02*
X194989285Y-88837200D01*
X194989285Y-88837200D02*
X195132142Y-88884819D01*
X195132142Y-88884819D02*
X195227380Y-88884819D01*
X195227380Y-88884819D02*
X195370237Y-88837200D01*
X195370237Y-88837200D02*
X195465475Y-88741961D01*
X195465475Y-88741961D02*
X195513094Y-88646723D01*
X195513094Y-88646723D02*
X195560713Y-88456247D01*
X195560713Y-88456247D02*
X195560713Y-88313390D01*
X195560713Y-88313390D02*
X195513094Y-88122914D01*
X195513094Y-88122914D02*
X195465475Y-88027676D01*
X195465475Y-88027676D02*
X195370237Y-87932438D01*
X195370237Y-87932438D02*
X195227380Y-87884819D01*
X195227380Y-87884819D02*
X195132142Y-87884819D01*
X195132142Y-87884819D02*
X194989285Y-87932438D01*
X194989285Y-87932438D02*
X194941666Y-87980057D01*
X194608332Y-87884819D02*
X193989285Y-87884819D01*
X193989285Y-87884819D02*
X194322618Y-88265771D01*
X194322618Y-88265771D02*
X194179761Y-88265771D01*
X194179761Y-88265771D02*
X194084523Y-88313390D01*
X194084523Y-88313390D02*
X194036904Y-88361009D01*
X194036904Y-88361009D02*
X193989285Y-88456247D01*
X193989285Y-88456247D02*
X193989285Y-88694342D01*
X193989285Y-88694342D02*
X194036904Y-88789580D01*
X194036904Y-88789580D02*
X194084523Y-88837200D01*
X194084523Y-88837200D02*
X194179761Y-88884819D01*
X194179761Y-88884819D02*
X194465475Y-88884819D01*
X194465475Y-88884819D02*
X194560713Y-88837200D01*
X194560713Y-88837200D02*
X194608332Y-88789580D01*
X209633333Y-82654819D02*
X209633333Y-83369104D01*
X209633333Y-83369104D02*
X209680952Y-83511961D01*
X209680952Y-83511961D02*
X209776190Y-83607200D01*
X209776190Y-83607200D02*
X209919047Y-83654819D01*
X209919047Y-83654819D02*
X210014285Y-83654819D01*
X209157142Y-83654819D02*
X209157142Y-82654819D01*
X209157142Y-82654819D02*
X208776190Y-82654819D01*
X208776190Y-82654819D02*
X208680952Y-82702438D01*
X208680952Y-82702438D02*
X208633333Y-82750057D01*
X208633333Y-82750057D02*
X208585714Y-82845295D01*
X208585714Y-82845295D02*
X208585714Y-82988152D01*
X208585714Y-82988152D02*
X208633333Y-83083390D01*
X208633333Y-83083390D02*
X208680952Y-83131009D01*
X208680952Y-83131009D02*
X208776190Y-83178628D01*
X208776190Y-83178628D02*
X209157142Y-83178628D01*
X208204761Y-82750057D02*
X208157142Y-82702438D01*
X208157142Y-82702438D02*
X208061904Y-82654819D01*
X208061904Y-82654819D02*
X207823809Y-82654819D01*
X207823809Y-82654819D02*
X207728571Y-82702438D01*
X207728571Y-82702438D02*
X207680952Y-82750057D01*
X207680952Y-82750057D02*
X207633333Y-82845295D01*
X207633333Y-82845295D02*
X207633333Y-82940533D01*
X207633333Y-82940533D02*
X207680952Y-83083390D01*
X207680952Y-83083390D02*
X208252380Y-83654819D01*
X208252380Y-83654819D02*
X207633333Y-83654819D01*
X200766666Y-84254819D02*
X201242856Y-84254819D01*
X201242856Y-84254819D02*
X201242856Y-83254819D01*
X199909523Y-84254819D02*
X200480951Y-84254819D01*
X200195237Y-84254819D02*
X200195237Y-83254819D01*
X200195237Y-83254819D02*
X200290475Y-83397676D01*
X200290475Y-83397676D02*
X200385713Y-83492914D01*
X200385713Y-83492914D02*
X200480951Y-83540533D01*
D11*
%TO.C,SW1*%
X207810000Y-63020000D02*
X207810000Y-63050000D01*
X207810000Y-67550000D02*
X207810000Y-64950000D01*
X207810000Y-69480000D02*
X207810000Y-69450000D01*
X201350000Y-63020000D02*
X207810000Y-63020000D01*
X201350000Y-63020000D02*
X201350000Y-63050000D01*
X201350000Y-67550000D02*
X201350000Y-64950000D01*
X201350000Y-69450000D02*
X201350000Y-69480000D01*
X201350000Y-69480000D02*
X207810000Y-69480000D01*
%TO.C,SW2*%
X201350000Y-86170000D02*
X201380000Y-86170000D01*
X205880000Y-86170000D02*
X203280000Y-86170000D01*
X207810000Y-86170000D02*
X207780000Y-86170000D01*
X201350000Y-92630000D02*
X201350000Y-86170000D01*
X201350000Y-92630000D02*
X201380000Y-92630000D01*
X205880000Y-92630000D02*
X203280000Y-92630000D01*
X207780000Y-92630000D02*
X207810000Y-92630000D01*
X207810000Y-92630000D02*
X207810000Y-86170000D01*
D12*
%TO.C,U1*%
X213454200Y-90441600D02*
G75*
G02*
X213454200Y-89832000I0J304800D01*
G01*
X213454200Y-90441600D02*
X213454200Y-91508400D01*
X213454200Y-89832000D02*
X213454200Y-90441600D01*
X213454200Y-88765200D02*
X213454200Y-89832000D01*
X208475800Y-91508400D02*
X208475800Y-88765200D01*
D11*
%TO.C,CR1*%
X205160000Y-82560000D02*
X201040000Y-82560000D01*
X205160000Y-79140000D02*
X205160000Y-82560000D01*
%TO.C,R1*%
X206937742Y-95477500D02*
X207412258Y-95477500D01*
X206937742Y-96522500D02*
X207412258Y-96522500D01*
%TO.C,D3*%
X194235000Y-76272500D02*
X192765000Y-76272500D01*
X194235000Y-73987500D02*
X194235000Y-76272500D01*
X192765000Y-76272500D02*
X192765000Y-73987500D01*
%TO.C,C1*%
X196412164Y-71360000D02*
X196627836Y-71360000D01*
X196412164Y-70640000D02*
X196627836Y-70640000D01*
%TO.C,U2*%
X195440000Y-80090000D02*
X195440000Y-81910000D01*
X195490000Y-80090000D02*
X195440000Y-80090000D01*
X198560000Y-80090000D02*
X198510000Y-80090000D01*
X195440000Y-81910000D02*
X195490000Y-81910000D01*
X198510000Y-81910000D02*
X198560000Y-81910000D01*
X198560000Y-81910000D02*
X198560000Y-80090000D01*
X198840000Y-82690000D02*
X198510000Y-82450000D01*
X198840000Y-82210000D01*
X198840000Y-82690000D01*
G36*
X198840000Y-82690000D02*
G01*
X198510000Y-82450000D01*
X198840000Y-82210000D01*
X198840000Y-82690000D01*
G37*
%TO.C,JP1*%
X211050000Y-77300000D02*
X211050000Y-76700000D01*
X210400000Y-76000000D02*
X207600000Y-76000000D01*
X207800000Y-75800000D02*
X208100000Y-75500000D01*
X207800000Y-75800000D02*
X207500000Y-75500000D01*
X207600000Y-78000000D02*
X210400000Y-78000000D01*
X207500000Y-75500000D02*
X208100000Y-75500000D01*
X206950000Y-76700000D02*
X206950000Y-77300000D01*
X211050000Y-77300000D02*
G75*
G02*
X210350000Y-78000000I-700000J0D01*
G01*
X210350000Y-76000000D02*
G75*
G02*
X211050000Y-76700000I0J-700000D01*
G01*
X207650000Y-78000000D02*
G75*
G02*
X206950000Y-77300000I-1J699999D01*
G01*
X206950000Y-76700000D02*
G75*
G02*
X207650000Y-76000000I699999J1D01*
G01*
%TO.C,R2*%
X194522500Y-80587742D02*
X194522500Y-81062258D01*
X193477500Y-80587742D02*
X193477500Y-81062258D01*
%TO.C,C3*%
X194634420Y-86490000D02*
X194915580Y-86490000D01*
X194634420Y-87510000D02*
X194915580Y-87510000D01*
%TO.C,JP2*%
X206950000Y-80700000D02*
X206950000Y-81300000D01*
X207600000Y-82000000D02*
X210400000Y-82000000D01*
X210200000Y-82200000D02*
X209900000Y-82500000D01*
X210200000Y-82200000D02*
X210500000Y-82500000D01*
X210400000Y-80000000D02*
X207600000Y-80000000D01*
X210500000Y-82500000D02*
X209900000Y-82500000D01*
X211050000Y-81300000D02*
X211050000Y-80700000D01*
X206950000Y-80700000D02*
G75*
G02*
X207650000Y-80000000I700000J0D01*
G01*
X207650000Y-82000000D02*
G75*
G02*
X206950000Y-81300000I0J700000D01*
G01*
X210350000Y-80000000D02*
G75*
G02*
X211050000Y-80700000I1J-699999D01*
G01*
X211050000Y-81300000D02*
G75*
G02*
X210350000Y-82000000I-699999J-1D01*
G01*
%TD*%
M02*
