%TF.GenerationSoftware,KiCad,Pcbnew,9.0.6*%
%TF.CreationDate,2026-07-30T12:35:05+01:00*%
%TF.ProjectId,rf_remote_EV1527,72665f72-656d-46f7-9465-5f4556313532,rev?*%
%TF.SameCoordinates,Original*%
%TF.FileFunction,Soldermask,Bot*%
%TF.FilePolarity,Negative*%
%FSLAX46Y46*%
G04 Gerber Fmt 4.6, Leading zero omitted, Abs format (unit mm)*
G04 Created by KiCad (PCBNEW 9.0.6) date 2026-07-30 12:35:05*
%MOMM*%
%LPD*%
G01*
G04 APERTURE LIST*
G04 Aperture macros list*
%AMRoundRect*
0 Rectangle with rounded corners*
0 $1 Rounding radius*
0 $2 $3 $4 $5 $6 $7 $8 $9 X,Y pos of 4 corners*
0 Add a 4 corners polygon primitive as box body*
4,1,4,$2,$3,$4,$5,$6,$7,$8,$9,$2,$3,0*
0 Add four circle primitives for the rounded corners*
1,1,$1+$1,$2,$3*
1,1,$1+$1,$4,$5*
1,1,$1+$1,$6,$7*
1,1,$1+$1,$8,$9*
0 Add four rect primitives between the rounded corners*
20,1,$1+$1,$2,$3,$4,$5,0*
20,1,$1+$1,$4,$5,$6,$7,0*
20,1,$1+$1,$6,$7,$8,$9,0*
20,1,$1+$1,$8,$9,$2,$3,0*%
%AMFreePoly0*
4,1,23,0.550000,-0.750000,0.000000,-0.750000,0.000000,-0.745722,-0.065263,-0.745722,-0.191342,-0.711940,-0.304381,-0.646677,-0.396677,-0.554381,-0.461940,-0.441342,-0.495722,-0.315263,-0.495722,-0.250000,-0.500000,-0.250000,-0.500000,0.250000,-0.495722,0.250000,-0.495722,0.315263,-0.461940,0.441342,-0.396677,0.554381,-0.304381,0.646677,-0.191342,0.711940,-0.065263,0.745722,0.000000,0.745722,
0.000000,0.750000,0.550000,0.750000,0.550000,-0.750000,0.550000,-0.750000,$1*%
%AMFreePoly1*
4,1,23,0.000000,0.745722,0.065263,0.745722,0.191342,0.711940,0.304381,0.646677,0.396677,0.554381,0.461940,0.441342,0.495722,0.315263,0.495722,0.250000,0.500000,0.250000,0.500000,-0.250000,0.495722,-0.250000,0.495722,-0.315263,0.461940,-0.441342,0.396677,-0.554381,0.304381,-0.646677,0.191342,-0.711940,0.065263,-0.745722,0.000000,-0.745722,0.000000,-0.750000,-0.550000,-0.750000,
-0.550000,0.750000,0.000000,0.750000,0.000000,0.745722,0.000000,0.745722,$1*%
G04 Aperture macros list end*
%ADD10RoundRect,0.250000X-0.525000X-0.400000X0.525000X-0.400000X0.525000X0.400000X-0.525000X0.400000X0*%
%ADD11RoundRect,0.250000X0.400000X-0.525000X0.400000X0.525000X-0.400000X0.525000X-0.400000X-0.525000X0*%
%ADD12RoundRect,0.102000X0.279400X-0.863600X0.279400X0.863600X-0.279400X0.863600X-0.279400X-0.863600X0*%
%ADD13RoundRect,0.250000X0.450000X0.350000X-0.450000X0.350000X-0.450000X-0.350000X0.450000X-0.350000X0*%
%ADD14RoundRect,0.200000X-0.200000X-0.275000X0.200000X-0.275000X0.200000X0.275000X-0.200000X0.275000X0*%
%ADD15RoundRect,0.218750X0.256250X-0.218750X0.256250X0.218750X-0.256250X0.218750X-0.256250X-0.218750X0*%
%ADD16RoundRect,0.140000X-0.140000X-0.170000X0.140000X-0.170000X0.140000X0.170000X-0.140000X0.170000X0*%
%ADD17RoundRect,0.150000X0.150000X-0.512500X0.150000X0.512500X-0.150000X0.512500X-0.150000X-0.512500X0*%
%ADD18FreePoly0,0.000000*%
%ADD19R,1.000000X1.500000*%
%ADD20FreePoly1,0.000000*%
%ADD21RoundRect,0.200000X-0.275000X0.200000X-0.275000X-0.200000X0.275000X-0.200000X0.275000X0.200000X0*%
%ADD22RoundRect,0.225000X-0.225000X-0.250000X0.225000X-0.250000X0.225000X0.250000X-0.225000X0.250000X0*%
%ADD23FreePoly0,180.000000*%
%ADD24FreePoly1,180.000000*%
%ADD25RoundRect,0.147500X-0.147500X-0.172500X0.147500X-0.172500X0.147500X0.172500X-0.147500X0.172500X0*%
G04 APERTURE END LIST*
%TO.C,JP1*%
G36*
X208250000Y-77750000D02*
G01*
X209750000Y-77750000D01*
X209750000Y-76250000D01*
X208250000Y-76250000D01*
X208250000Y-77750000D01*
G37*
%TO.C,JP2*%
G36*
X209750000Y-80250000D02*
G01*
X208250000Y-80250000D01*
X208250000Y-81750000D01*
X209750000Y-81750000D01*
X209750000Y-80250000D01*
G37*
%TD*%
D10*
%TO.C,SW1*%
X208560000Y-64000000D03*
X200600000Y-64000000D03*
X208560000Y-68500000D03*
X200600000Y-68500000D03*
%TD*%
D11*
%TO.C,SW2*%
X202330000Y-85420000D03*
X202330000Y-93380000D03*
X206830000Y-85420000D03*
X206830000Y-93380000D03*
%TD*%
D12*
%TO.C,U1*%
X212870000Y-87800000D03*
X211600000Y-87800000D03*
X210330000Y-87800000D03*
X209060000Y-87800000D03*
X209060000Y-92473600D03*
X210330000Y-92473600D03*
X211600000Y-92473600D03*
X212870000Y-92473600D03*
%TD*%
D13*
%TO.C,CR1*%
X204200000Y-80000000D03*
X202000000Y-80000000D03*
X202000000Y-81700000D03*
X204200000Y-81700000D03*
%TD*%
D14*
%TO.C,R1*%
X208000000Y-96000000D03*
X206350000Y-96000000D03*
%TD*%
D15*
%TO.C,D3*%
X193500000Y-74000000D03*
X193500000Y-75575000D03*
%TD*%
D16*
%TO.C,C1*%
X196040000Y-71000000D03*
X197000000Y-71000000D03*
%TD*%
D17*
%TO.C,U2*%
X197950000Y-82137500D03*
X197000000Y-82137500D03*
X196050000Y-82137500D03*
X196050000Y-79862500D03*
X197000000Y-79862500D03*
X197950000Y-79862500D03*
%TD*%
D18*
%TO.C,JP1*%
X207700000Y-77000000D03*
D19*
X209000000Y-77000000D03*
D20*
X210300000Y-77000000D03*
%TD*%
D21*
%TO.C,R2*%
X194000000Y-80000000D03*
X194000000Y-81650000D03*
%TD*%
D22*
%TO.C,C3*%
X194000000Y-87000000D03*
X195550000Y-87000000D03*
%TD*%
D23*
%TO.C,JP2*%
X210300000Y-81000000D03*
D19*
X209000000Y-81000000D03*
D24*
X207700000Y-81000000D03*
%TD*%
D25*
%TO.C,L1*%
X198000000Y-83800000D03*
X198970000Y-83800000D03*
%TD*%
M02*
