%TF.GenerationSoftware,KiCad,Pcbnew,9.0.6*%
%TF.CreationDate,2026-07-30T12:35:04+01:00*%
%TF.ProjectId,rf_remote_EV1527,72665f72-656d-46f7-9465-5f4556313532,rev?*%
%TF.SameCoordinates,Original*%
%TF.FileFunction,Copper,L1,Top*%
%TF.FilePolarity,Positive*%
%FSLAX46Y46*%
G04 Gerber Fmt 4.6, Leading zero omitted, Abs format (unit mm)*
G04 Created by KiCad (PCBNEW 9.0.6) date 2026-07-30 12:35:04*
%MOMM*%
%LPD*%
G01*
G04 APERTURE LIST*
G04 Aperture macros list*
%AMRoundRect*
0 Rectangle with rounded corners*
0 $1 Rounding radius*
0 $2 $3 $4 $5 $6 $7 $8 $9 X,Y pos of 4 corners*
0 Add a 4 corners polygon primitive as box body*
4,1,4,$2,$3,$4,$5,$6,$7,$8,$9,$2,$3,0*
0 Add four circle primitives for the rounded corners*
1,1,$1+$1,$2,$3*
1,1,$1+$1,$4,$5*
1,1,$1+$1,$6,$7*
1,1,$1+$1,$8,$9*
0 Add four rect primitives between the rounded corners*
20,1,$1+$1,$2,$3,$4,$5,0*
20,1,$1+$1,$4,$5,$6,$7,0*
20,1,$1+$1,$6,$7,$8,$9,0*
20,1,$1+$1,$8,$9,$2,$3,0*%
G04 Aperture macros list end*
%TA.AperFunction,SMDPad,CuDef*%
%ADD10RoundRect,0.375000X0.875000X-1.375000X0.875000X1.375000X-0.875000X1.375000X-0.875000X-1.375000X0*%
%TD*%
%TA.AperFunction,SMDPad,CuDef*%
%ADD11RoundRect,0.750000X-0.353553X-2.828427X2.828427X0.353553X0.353553X2.828427X-2.828427X-0.353553X0*%
%TD*%
%TA.AperFunction,SMDPad,CuDef*%
%ADD12R,1.000000X1.000000*%
%TD*%
%TA.AperFunction,ViaPad*%
%ADD13C,0.600000*%
%TD*%
%TA.AperFunction,Conductor*%
%ADD14C,0.200000*%
%TD*%
%TA.AperFunction,Conductor*%
%ADD15C,1.000000*%
%TD*%
G04 APERTURE END LIST*
D10*
%TO.P,U3,-*%
%TO.N,GND*%
X201000000Y-84000000D03*
X201000000Y-91000000D03*
X208000000Y-91000000D03*
X208000000Y-84000000D03*
D11*
%TO.P,U3,+1*%
%TO.N,Net-(U1-VCC)*%
X196000000Y-79000000D03*
%TD*%
D12*
%TO.P,AE1,1,A*%
%TO.N,Net-(AE1-A)*%
X197000000Y-74000000D03*
%TD*%
D13*
%TO.N,GND*%
X204800000Y-94800000D03*
%TO.N,Net-(U1-TXD)*%
X209800000Y-90600000D03*
%TO.N,GND*%
X199400000Y-90200000D03*
%TO.N,Net-(AE1-A)*%
X195000000Y-72000000D03*
%TO.N,Net-(U1-VCC)*%
X205398000Y-75998000D03*
X194200000Y-85400000D03*
X203000000Y-95400000D03*
%TO.N,Net-(U1-TXD)*%
X200000000Y-80000000D03*
%TO.N,Net-(U1-VCC)*%
X197000000Y-89000000D03*
%TO.N,GND*%
X194000000Y-84000000D03*
X200000000Y-81000000D03*
%TD*%
D14*
%TO.N,GND*%
X204800000Y-91000000D02*
X204800000Y-94800000D01*
%TO.N,Net-(U1-TXD)*%
X210000000Y-80000000D02*
X212400000Y-82400000D01*
X200000000Y-80000000D02*
X210000000Y-80000000D01*
X212400000Y-82400000D02*
X212400000Y-88000000D01*
X212400000Y-88000000D02*
X209800000Y-90600000D01*
%TO.N,GND*%
X201000000Y-91000000D02*
X204800000Y-91000000D01*
X200400000Y-90200000D02*
X199400000Y-90200000D01*
X201200000Y-91000000D02*
X200400000Y-90200000D01*
D15*
%TO.N,Net-(AE1-A)*%
X204000000Y-74000000D02*
X204000000Y-62000000D01*
D14*
%TO.N,Net-(U1-VCC)*%
X199002000Y-75998000D02*
X205398000Y-75998000D01*
X196000000Y-79000000D02*
X199002000Y-75998000D01*
X193399000Y-84599000D02*
X194200000Y-85400000D01*
X193399000Y-81601000D02*
X193399000Y-84599000D01*
X201550057Y-95400000D02*
X203000000Y-95400000D01*
X193399000Y-87248943D02*
X201550057Y-95400000D01*
X193399000Y-81601000D02*
X193399000Y-87248943D01*
X196000000Y-79000000D02*
X193399000Y-81601000D01*
X193000000Y-82000000D02*
X193000000Y-87400000D01*
X194600000Y-89000000D02*
X197000000Y-89000000D01*
X196000000Y-79000000D02*
X193000000Y-82000000D01*
X193000000Y-87400000D02*
X194600000Y-89000000D01*
%TO.N,GND*%
X194000000Y-84000000D02*
X201000000Y-84000000D01*
X201000000Y-82000000D02*
X200000000Y-81000000D01*
X201000000Y-84000000D02*
X201000000Y-82000000D01*
X208000000Y-91000000D02*
X208000000Y-84000000D01*
X204800000Y-91000000D02*
X208000000Y-91000000D01*
X201000000Y-84000000D02*
X201000000Y-91000000D01*
%TO.N,Net-(AE1-A)*%
X194970000Y-72000000D02*
X195000000Y-72000000D01*
X195000000Y-72000000D02*
X197000000Y-74000000D01*
D15*
X200000000Y-62000000D02*
X202000000Y-62000000D01*
X210000000Y-74000000D02*
X212000000Y-74000000D01*
X208000000Y-62000000D02*
X210000000Y-62000000D01*
X202000000Y-62000000D02*
X202000000Y-74000000D01*
X206000000Y-62000000D02*
X206000000Y-74000000D01*
X208000000Y-74000000D02*
X208000000Y-62000000D01*
X206000000Y-74000000D02*
X208000000Y-74000000D01*
X212000000Y-74000000D02*
X212000000Y-62000000D01*
X210000000Y-62000000D02*
X210000000Y-74000000D01*
X204000000Y-62000000D02*
X206000000Y-62000000D01*
X202000000Y-74000000D02*
X204000000Y-74000000D01*
X200000000Y-74000000D02*
X200000000Y-62000000D01*
X197000000Y-74000000D02*
X200000000Y-74000000D01*
%TD*%
%TA.AperFunction,Conductor*%
%TO.N,GND*%
G36*
X198743039Y-61520185D02*
G01*
X198788794Y-61572989D01*
X198800000Y-61624500D01*
X198800000Y-71704733D01*
X198780315Y-71771772D01*
X198727511Y-71817527D01*
X198707950Y-71824546D01*
X196046686Y-72534216D01*
X195976838Y-72532470D01*
X195927055Y-72502084D01*
X195536819Y-72111848D01*
X195503334Y-72050525D01*
X195500500Y-72024167D01*
X195500500Y-71934110D01*
X195500500Y-71934108D01*
X195466392Y-71806814D01*
X195400500Y-71692686D01*
X195307314Y-71599500D01*
X195250250Y-71566554D01*
X195193187Y-71533608D01*
X195129539Y-71516554D01*
X195065892Y-71499500D01*
X194934108Y-71499500D01*
X194806812Y-71533608D01*
X194692686Y-71599500D01*
X194692683Y-71599502D01*
X194599502Y-71692683D01*
X194599500Y-71692686D01*
X194533608Y-71806812D01*
X194499500Y-71934108D01*
X194499500Y-72065892D01*
X194511814Y-72111848D01*
X194533608Y-72193187D01*
X194566554Y-72250250D01*
X194599500Y-72307314D01*
X194692686Y-72400500D01*
X194806814Y-72466392D01*
X194934108Y-72500500D01*
X194934110Y-72500500D01*
X195024167Y-72500500D01*
X195091206Y-72520185D01*
X195111848Y-72536819D01*
X195763681Y-73188652D01*
X195797166Y-73249975D01*
X195800000Y-73276333D01*
X195800000Y-74400000D01*
X196392539Y-74669336D01*
X196421769Y-74688867D01*
X196446197Y-74693726D01*
X198000000Y-75400000D01*
X212369933Y-74754160D01*
X212437788Y-74770815D01*
X212485868Y-74821511D01*
X212499500Y-74878035D01*
X212499500Y-76065891D01*
X212533608Y-76193187D01*
X212566554Y-76250250D01*
X212599500Y-76307314D01*
X212692686Y-76400500D01*
X212806814Y-76466392D01*
X212934108Y-76500500D01*
X213065892Y-76500500D01*
X213775500Y-76500500D01*
X213842539Y-76520185D01*
X213888294Y-76572989D01*
X213899500Y-76624500D01*
X213899500Y-97375500D01*
X213879815Y-97442539D01*
X213827011Y-97488294D01*
X213775500Y-97499500D01*
X212371905Y-97499500D01*
X212304866Y-97479815D01*
X212259111Y-97427011D01*
X212249167Y-97357853D01*
X212271586Y-97302615D01*
X212283343Y-97286433D01*
X212390568Y-97075992D01*
X212463553Y-96851368D01*
X212488929Y-96691150D01*
X212500500Y-96618097D01*
X212500500Y-96381902D01*
X212463553Y-96148631D01*
X212390566Y-95924003D01*
X212334002Y-95812991D01*
X212283343Y-95713567D01*
X212144517Y-95522490D01*
X211977510Y-95355483D01*
X211786433Y-95216657D01*
X211767111Y-95206812D01*
X211575996Y-95109433D01*
X211351368Y-95036446D01*
X211118097Y-94999500D01*
X211118092Y-94999500D01*
X210881908Y-94999500D01*
X210881903Y-94999500D01*
X210648631Y-95036446D01*
X210424003Y-95109433D01*
X210213566Y-95216657D01*
X210104550Y-95295862D01*
X210022490Y-95355483D01*
X210022488Y-95355485D01*
X210022487Y-95355485D01*
X209855485Y-95522487D01*
X209855485Y-95522488D01*
X209855483Y-95522490D01*
X209795862Y-95604550D01*
X209716657Y-95713566D01*
X209609433Y-95924003D01*
X209536446Y-96148631D01*
X209499500Y-96381902D01*
X209499500Y-96618097D01*
X209536446Y-96851368D01*
X209609433Y-97075996D01*
X209716656Y-97286432D01*
X209728414Y-97302615D01*
X209751893Y-97368422D01*
X209736067Y-97436476D01*
X209685961Y-97485170D01*
X209628095Y-97499500D01*
X202258675Y-97499500D01*
X202191636Y-97479815D01*
X202170994Y-97463181D01*
X198380415Y-93672601D01*
X198375151Y-93667337D01*
X198353014Y-93639135D01*
X198328754Y-93620940D01*
X198322519Y-93614705D01*
X198307316Y-93599501D01*
X198307311Y-93599498D01*
X198282713Y-93585296D01*
X198270313Y-93577109D01*
X197941722Y-93330666D01*
X194316719Y-90611914D01*
X194282766Y-90581807D01*
X194264193Y-90572520D01*
X194247586Y-90560065D01*
X194210191Y-90545054D01*
X194200936Y-90540892D01*
X192569045Y-89724945D01*
X192517887Y-89677358D01*
X192500500Y-89614036D01*
X192500500Y-87598614D01*
X192520185Y-87531575D01*
X192572989Y-87485820D01*
X192642147Y-87475876D01*
X192705703Y-87504901D01*
X192731888Y-87536616D01*
X192739294Y-87549443D01*
X192759540Y-87584511D01*
X194415489Y-89240460D01*
X194484012Y-89280022D01*
X194560438Y-89300500D01*
X194639562Y-89300500D01*
X194974224Y-89300500D01*
X195041263Y-89320185D01*
X195061905Y-89336819D01*
X201309597Y-95584511D01*
X201365546Y-95640460D01*
X201365548Y-95640461D01*
X201365552Y-95640464D01*
X201434061Y-95680017D01*
X201434068Y-95680021D01*
X201510495Y-95700500D01*
X201589619Y-95700500D01*
X202541324Y-95700500D01*
X202608363Y-95720185D01*
X202629005Y-95736819D01*
X202692686Y-95800500D01*
X202806814Y-95866392D01*
X202934108Y-95900500D01*
X202934110Y-95900500D01*
X203065890Y-95900500D01*
X203065892Y-95900500D01*
X203193186Y-95866392D01*
X203307314Y-95800500D01*
X203400500Y-95707314D01*
X203466392Y-95593186D01*
X203500500Y-95465892D01*
X203500500Y-95334108D01*
X203466392Y-95206814D01*
X203400500Y-95092686D01*
X203307314Y-94999500D01*
X203250250Y-94966554D01*
X203193187Y-94933608D01*
X203129539Y-94916554D01*
X203065892Y-94899500D01*
X202934108Y-94899500D01*
X202806812Y-94933608D01*
X202692686Y-94999500D01*
X202692683Y-94999502D01*
X202629005Y-95063181D01*
X202567682Y-95096666D01*
X202541324Y-95099500D01*
X201725890Y-95099500D01*
X201658851Y-95079815D01*
X201638209Y-95063181D01*
X200036709Y-93461681D01*
X200003224Y-93400358D01*
X200008208Y-93330666D01*
X200050080Y-93274733D01*
X200115544Y-93250316D01*
X200124390Y-93250000D01*
X200750000Y-93250000D01*
X201250000Y-93250000D01*
X201951097Y-93250000D01*
X201993824Y-93247102D01*
X202178523Y-93201168D01*
X202349022Y-93116609D01*
X202349025Y-93116607D01*
X202497366Y-92997367D01*
X202497367Y-92997366D01*
X202616607Y-92849025D01*
X202616609Y-92849022D01*
X202701168Y-92678523D01*
X202747102Y-92493824D01*
X202750000Y-92451096D01*
X206250000Y-92451096D01*
X206252897Y-92493824D01*
X206298831Y-92678523D01*
X206383390Y-92849022D01*
X206383392Y-92849025D01*
X206502632Y-92997366D01*
X206502633Y-92997367D01*
X206650974Y-93116607D01*
X206650977Y-93116609D01*
X206821476Y-93201168D01*
X207006175Y-93247102D01*
X207048903Y-93250000D01*
X207750000Y-93250000D01*
X207750000Y-91250000D01*
X206250000Y-91250000D01*
X206250000Y-92451096D01*
X202750000Y-92451096D01*
X202750000Y-91250000D01*
X201250000Y-91250000D01*
X201250000Y-93250000D01*
X200750000Y-93250000D01*
X200750000Y-91250000D01*
X199250000Y-91250000D01*
X199250000Y-92375610D01*
X199230315Y-92442649D01*
X199177511Y-92488404D01*
X199108353Y-92498348D01*
X199044797Y-92469323D01*
X199038319Y-92463291D01*
X196123931Y-89548903D01*
X199250000Y-89548903D01*
X199250000Y-90750000D01*
X200750000Y-90750000D01*
X201250000Y-90750000D01*
X202750000Y-90750000D01*
X202750000Y-89548903D01*
X206250000Y-89548903D01*
X206250000Y-90750000D01*
X207750000Y-90750000D01*
X207750000Y-88750000D01*
X207048903Y-88750000D01*
X207006175Y-88752897D01*
X206821476Y-88798831D01*
X206650977Y-88883390D01*
X206650974Y-88883392D01*
X206502633Y-89002632D01*
X206502632Y-89002633D01*
X206383392Y-89150974D01*
X206383390Y-89150977D01*
X206298831Y-89321476D01*
X206252897Y-89506175D01*
X206250000Y-89548903D01*
X202750000Y-89548903D01*
X202747102Y-89506175D01*
X202701168Y-89321476D01*
X202616609Y-89150977D01*
X202616607Y-89150974D01*
X202497367Y-89002633D01*
X202497366Y-89002632D01*
X202349025Y-88883392D01*
X202349022Y-88883390D01*
X202178523Y-88798831D01*
X201993824Y-88752897D01*
X201951097Y-88750000D01*
X201250000Y-88750000D01*
X201250000Y-90750000D01*
X200750000Y-90750000D01*
X200750000Y-88750000D01*
X200048903Y-88750000D01*
X200006175Y-88752897D01*
X199821476Y-88798831D01*
X199650977Y-88883390D01*
X199650974Y-88883392D01*
X199502633Y-89002632D01*
X199502632Y-89002633D01*
X199383392Y-89150974D01*
X199383390Y-89150977D01*
X199298831Y-89321476D01*
X199252897Y-89506175D01*
X199250000Y-89548903D01*
X196123931Y-89548903D01*
X196087209Y-89512181D01*
X196053724Y-89450858D01*
X196058708Y-89381166D01*
X196100580Y-89325233D01*
X196166044Y-89300816D01*
X196174890Y-89300500D01*
X196541324Y-89300500D01*
X196608363Y-89320185D01*
X196629005Y-89336819D01*
X196692686Y-89400500D01*
X196806814Y-89466392D01*
X196934108Y-89500500D01*
X196934110Y-89500500D01*
X197065890Y-89500500D01*
X197065892Y-89500500D01*
X197193186Y-89466392D01*
X197307314Y-89400500D01*
X197400500Y-89307314D01*
X197466392Y-89193186D01*
X197500500Y-89065892D01*
X197500500Y-88934108D01*
X197466392Y-88806814D01*
X197400500Y-88692686D01*
X197307314Y-88599500D01*
X197250250Y-88566554D01*
X197193187Y-88533608D01*
X197129539Y-88516554D01*
X197065892Y-88499500D01*
X196934108Y-88499500D01*
X196806812Y-88533608D01*
X196692686Y-88599500D01*
X196692683Y-88599502D01*
X196629005Y-88663181D01*
X196567682Y-88696666D01*
X196541324Y-88699500D01*
X195325890Y-88699500D01*
X195258851Y-88679815D01*
X195238209Y-88663181D01*
X193735819Y-87160791D01*
X193702334Y-87099468D01*
X193699500Y-87073110D01*
X193699500Y-85903710D01*
X193719185Y-85836671D01*
X193771989Y-85790916D01*
X193841147Y-85780972D01*
X193884114Y-85799092D01*
X193885648Y-85796436D01*
X193892684Y-85800498D01*
X193892686Y-85800500D01*
X194006814Y-85866392D01*
X194134108Y-85900500D01*
X194134110Y-85900500D01*
X194265890Y-85900500D01*
X194265892Y-85900500D01*
X194393186Y-85866392D01*
X194507314Y-85800500D01*
X194600500Y-85707314D01*
X194666392Y-85593186D01*
X194700500Y-85465892D01*
X194700500Y-85451096D01*
X199250000Y-85451096D01*
X199252897Y-85493824D01*
X199298831Y-85678523D01*
X199383390Y-85849022D01*
X199383392Y-85849025D01*
X199502632Y-85997366D01*
X199502633Y-85997367D01*
X199650974Y-86116607D01*
X199650977Y-86116609D01*
X199821476Y-86201168D01*
X200006175Y-86247102D01*
X200048903Y-86250000D01*
X200750000Y-86250000D01*
X201250000Y-86250000D01*
X201951097Y-86250000D01*
X201993824Y-86247102D01*
X202178523Y-86201168D01*
X202349022Y-86116609D01*
X202349025Y-86116607D01*
X202497366Y-85997367D01*
X202497367Y-85997366D01*
X202616607Y-85849025D01*
X202616609Y-85849022D01*
X202701168Y-85678523D01*
X202747102Y-85493824D01*
X202750000Y-85451096D01*
X206250000Y-85451096D01*
X206252897Y-85493824D01*
X206298831Y-85678523D01*
X206383390Y-85849022D01*
X206383392Y-85849025D01*
X206502632Y-85997366D01*
X206502633Y-85997367D01*
X206650974Y-86116607D01*
X206650977Y-86116609D01*
X206821476Y-86201168D01*
X207006175Y-86247102D01*
X207048903Y-86250000D01*
X207750000Y-86250000D01*
X208250000Y-86250000D01*
X208951097Y-86250000D01*
X208993824Y-86247102D01*
X209178523Y-86201168D01*
X209349022Y-86116609D01*
X209349025Y-86116607D01*
X209497366Y-85997367D01*
X209497367Y-85997366D01*
X209616607Y-85849025D01*
X209616609Y-85849022D01*
X209701168Y-85678523D01*
X209747102Y-85493824D01*
X209750000Y-85451096D01*
X209750000Y-84250000D01*
X208250000Y-84250000D01*
X208250000Y-86250000D01*
X207750000Y-86250000D01*
X207750000Y-84250000D01*
X206250000Y-84250000D01*
X206250000Y-85451096D01*
X202750000Y-85451096D01*
X202750000Y-84250000D01*
X201250000Y-84250000D01*
X201250000Y-86250000D01*
X200750000Y-86250000D01*
X200750000Y-84250000D01*
X199250000Y-84250000D01*
X199250000Y-85451096D01*
X194700500Y-85451096D01*
X194700500Y-85334108D01*
X194666392Y-85206814D01*
X194600500Y-85092686D01*
X194507314Y-84999500D01*
X194450250Y-84966554D01*
X194393187Y-84933608D01*
X194329539Y-84916554D01*
X194265892Y-84899500D01*
X194175833Y-84899500D01*
X194108794Y-84879815D01*
X194088152Y-84863181D01*
X193735819Y-84510848D01*
X193721115Y-84483920D01*
X193704523Y-84458102D01*
X193703631Y-84451901D01*
X193702334Y-84449525D01*
X193699500Y-84423167D01*
X193699500Y-81776833D01*
X193708144Y-81747392D01*
X193714668Y-81717406D01*
X193718422Y-81712390D01*
X193719185Y-81709794D01*
X193735819Y-81689152D01*
X193861709Y-81563262D01*
X193923032Y-81529777D01*
X193992724Y-81534761D01*
X194037071Y-81563262D01*
X195013330Y-82539521D01*
X195100656Y-82612587D01*
X195269678Y-82706401D01*
X195269682Y-82706402D01*
X195269686Y-82706404D01*
X195454124Y-82764272D01*
X195486627Y-82767577D01*
X195646447Y-82783829D01*
X195821017Y-82766077D01*
X195838769Y-82764272D01*
X196023206Y-82706404D01*
X196023207Y-82706403D01*
X196023215Y-82706401D01*
X196192238Y-82612587D01*
X196268350Y-82548903D01*
X199250000Y-82548903D01*
X199250000Y-83750000D01*
X200750000Y-83750000D01*
X201250000Y-83750000D01*
X202750000Y-83750000D01*
X202750000Y-82548903D01*
X206250000Y-82548903D01*
X206250000Y-83750000D01*
X207750000Y-83750000D01*
X208250000Y-83750000D01*
X209750000Y-83750000D01*
X209750000Y-82548903D01*
X209747102Y-82506175D01*
X209701168Y-82321476D01*
X209616609Y-82150977D01*
X209616607Y-82150974D01*
X209497367Y-82002633D01*
X209497366Y-82002632D01*
X209349025Y-81883392D01*
X209349022Y-81883390D01*
X209178523Y-81798831D01*
X208993824Y-81752897D01*
X208951097Y-81750000D01*
X208250000Y-81750000D01*
X208250000Y-83750000D01*
X207750000Y-83750000D01*
X207750000Y-81750000D01*
X207048903Y-81750000D01*
X207006175Y-81752897D01*
X206821476Y-81798831D01*
X206650977Y-81883390D01*
X206650974Y-81883392D01*
X206502633Y-82002632D01*
X206502632Y-82002633D01*
X206383392Y-82150974D01*
X206383390Y-82150977D01*
X206298831Y-82321476D01*
X206252897Y-82506175D01*
X206250000Y-82548903D01*
X202750000Y-82548903D01*
X202747102Y-82506175D01*
X202701168Y-82321476D01*
X202616609Y-82150977D01*
X202616607Y-82150974D01*
X202497367Y-82002633D01*
X202497366Y-82002632D01*
X202349025Y-81883392D01*
X202349022Y-81883390D01*
X202178523Y-81798831D01*
X201993824Y-81752897D01*
X201951097Y-81750000D01*
X201250000Y-81750000D01*
X201250000Y-83750000D01*
X200750000Y-83750000D01*
X200750000Y-81750000D01*
X200048903Y-81750000D01*
X200006175Y-81752897D01*
X199821476Y-81798831D01*
X199650977Y-81883390D01*
X199650974Y-81883392D01*
X199502633Y-82002632D01*
X199502632Y-82002633D01*
X199383392Y-82150974D01*
X199383390Y-82150977D01*
X199298831Y-82321476D01*
X199252897Y-82506175D01*
X199250000Y-82548903D01*
X196268350Y-82548903D01*
X196279563Y-82539521D01*
X198884976Y-79934108D01*
X199499500Y-79934108D01*
X199499500Y-80065891D01*
X199533608Y-80193187D01*
X199566554Y-80250250D01*
X199599500Y-80307314D01*
X199692686Y-80400500D01*
X199806814Y-80466392D01*
X199934108Y-80500500D01*
X199934110Y-80500500D01*
X200065890Y-80500500D01*
X200065892Y-80500500D01*
X200193186Y-80466392D01*
X200307314Y-80400500D01*
X200370995Y-80336819D01*
X200432318Y-80303334D01*
X200458676Y-80300500D01*
X209824167Y-80300500D01*
X209891206Y-80320185D01*
X209911848Y-80336819D01*
X212063181Y-82488152D01*
X212096666Y-82549475D01*
X212099500Y-82575833D01*
X212099500Y-87824166D01*
X212079815Y-87891205D01*
X212063181Y-87911847D01*
X209961681Y-90013347D01*
X209900358Y-90046832D01*
X209830666Y-90041848D01*
X209774733Y-89999976D01*
X209750316Y-89934512D01*
X209750000Y-89925666D01*
X209750000Y-89548903D01*
X209747102Y-89506175D01*
X209701168Y-89321476D01*
X209616609Y-89150977D01*
X209616607Y-89150974D01*
X209497367Y-89002633D01*
X209497366Y-89002632D01*
X209349025Y-88883392D01*
X209349022Y-88883390D01*
X209178523Y-88798831D01*
X208993824Y-88752897D01*
X208951097Y-88750000D01*
X208250000Y-88750000D01*
X208250000Y-93250000D01*
X208951097Y-93250000D01*
X208993824Y-93247102D01*
X209178523Y-93201168D01*
X209349022Y-93116609D01*
X209349025Y-93116607D01*
X209497366Y-92997367D01*
X209497367Y-92997366D01*
X209616607Y-92849025D01*
X209616609Y-92849022D01*
X209701168Y-92678523D01*
X209747102Y-92493824D01*
X209750000Y-92451096D01*
X209750000Y-91224500D01*
X209769685Y-91157461D01*
X209822489Y-91111706D01*
X209858146Y-91103948D01*
X209857832Y-91101561D01*
X209865883Y-91100500D01*
X209865892Y-91100500D01*
X209993186Y-91066392D01*
X210107314Y-91000500D01*
X210200500Y-90907314D01*
X210266392Y-90793186D01*
X210300500Y-90665892D01*
X210300500Y-90575832D01*
X210320185Y-90508793D01*
X210336819Y-90488151D01*
X211443804Y-89381166D01*
X212640460Y-88184511D01*
X212680021Y-88115989D01*
X212700500Y-88039562D01*
X212700500Y-82360438D01*
X212680022Y-82284012D01*
X212640460Y-82215489D01*
X210184511Y-79759540D01*
X210184510Y-79759539D01*
X210184507Y-79759537D01*
X210175065Y-79754086D01*
X210175064Y-79754086D01*
X210115991Y-79719980D01*
X210115990Y-79719979D01*
X210090513Y-79713152D01*
X210039562Y-79699500D01*
X210039560Y-79699500D01*
X200458676Y-79699500D01*
X200391637Y-79679815D01*
X200370995Y-79663181D01*
X200307316Y-79599502D01*
X200307314Y-79599500D01*
X200250250Y-79566554D01*
X200193187Y-79533608D01*
X200129539Y-79516554D01*
X200065892Y-79499500D01*
X199934108Y-79499500D01*
X199806812Y-79533608D01*
X199692686Y-79599500D01*
X199692683Y-79599502D01*
X199599502Y-79692683D01*
X199599500Y-79692686D01*
X199533608Y-79806812D01*
X199499500Y-79934108D01*
X198884976Y-79934108D01*
X199539521Y-79279563D01*
X199612587Y-79192238D01*
X199706401Y-79023215D01*
X199764272Y-78838768D01*
X199783829Y-78646447D01*
X199764272Y-78454126D01*
X199764272Y-78454124D01*
X199706404Y-78269686D01*
X199706402Y-78269682D01*
X199706401Y-78269678D01*
X199612587Y-78100656D01*
X199539521Y-78013330D01*
X198563262Y-77037071D01*
X198529777Y-76975748D01*
X198534761Y-76906056D01*
X198563262Y-76861709D01*
X199090152Y-76334819D01*
X199151475Y-76301334D01*
X199177833Y-76298500D01*
X204939324Y-76298500D01*
X205006363Y-76318185D01*
X205027005Y-76334819D01*
X205090686Y-76398500D01*
X205204814Y-76464392D01*
X205332108Y-76498500D01*
X205332110Y-76498500D01*
X205463890Y-76498500D01*
X205463892Y-76498500D01*
X205591186Y-76464392D01*
X205705314Y-76398500D01*
X205798500Y-76305314D01*
X205864392Y-76191186D01*
X205898500Y-76063892D01*
X205898500Y-75932108D01*
X205864392Y-75804814D01*
X205798500Y-75690686D01*
X205705314Y-75597500D01*
X205648250Y-75564554D01*
X205591187Y-75531608D01*
X205527539Y-75514554D01*
X205463892Y-75497500D01*
X205332108Y-75497500D01*
X205204812Y-75531608D01*
X205090686Y-75597500D01*
X205090683Y-75597502D01*
X205027005Y-75661181D01*
X204965682Y-75694666D01*
X204939324Y-75697500D01*
X198962438Y-75697500D01*
X198911486Y-75711152D01*
X198886010Y-75717979D01*
X198826934Y-75752087D01*
X198826933Y-75752086D01*
X198817492Y-75757537D01*
X198817487Y-75757541D01*
X198138291Y-76436738D01*
X198076968Y-76470223D01*
X198007276Y-76465239D01*
X197962929Y-76436738D01*
X196986679Y-75460488D01*
X196986670Y-75460479D01*
X196899344Y-75387413D01*
X196793376Y-75328596D01*
X196730328Y-75293602D01*
X196730313Y-75293595D01*
X196545875Y-75235727D01*
X196353553Y-75216171D01*
X196161230Y-75235727D01*
X195976793Y-75293595D01*
X195976778Y-75293602D01*
X195807764Y-75387412D01*
X195807756Y-75387417D01*
X195720440Y-75460475D01*
X192460475Y-78720440D01*
X192387417Y-78807756D01*
X192387412Y-78807764D01*
X192293602Y-78976778D01*
X192293595Y-78976793D01*
X192235727Y-79161230D01*
X192216171Y-79353553D01*
X192235727Y-79545875D01*
X192293595Y-79730313D01*
X192293602Y-79730328D01*
X192309814Y-79759537D01*
X192387413Y-79899344D01*
X192460479Y-79986670D01*
X192460488Y-79986679D01*
X193436738Y-80962929D01*
X193470223Y-81024252D01*
X193465239Y-81093944D01*
X193436738Y-81138291D01*
X192759541Y-81815487D01*
X192759535Y-81815495D01*
X192719982Y-81884004D01*
X192719979Y-81884009D01*
X192699500Y-81960439D01*
X192699500Y-82747793D01*
X192679815Y-82814832D01*
X192627011Y-82860587D01*
X192557853Y-82870531D01*
X192494297Y-82841506D01*
X192468113Y-82809794D01*
X192432316Y-82747793D01*
X192400500Y-82692686D01*
X192307314Y-82599500D01*
X192250250Y-82566554D01*
X192193187Y-82533608D01*
X192129539Y-82516554D01*
X192065892Y-82499500D01*
X192065891Y-82499500D01*
X191624500Y-82499500D01*
X191557461Y-82479815D01*
X191511706Y-82427011D01*
X191500500Y-82375500D01*
X191500500Y-77624500D01*
X191520185Y-77557461D01*
X191572989Y-77511706D01*
X191624500Y-77500500D01*
X192065890Y-77500500D01*
X192065892Y-77500500D01*
X192193186Y-77466392D01*
X192307314Y-77400500D01*
X192400500Y-77307314D01*
X192466392Y-77193186D01*
X192500500Y-77065892D01*
X192500500Y-65921889D01*
X192520185Y-65854850D01*
X192572989Y-65809095D01*
X192642147Y-65799151D01*
X192705703Y-65828176D01*
X192712181Y-65834208D01*
X192772490Y-65894517D01*
X192963567Y-66033343D01*
X193062991Y-66084002D01*
X193174003Y-66140566D01*
X193174005Y-66140566D01*
X193174008Y-66140568D01*
X193294412Y-66179689D01*
X193398631Y-66213553D01*
X193631903Y-66250500D01*
X193631908Y-66250500D01*
X193868097Y-66250500D01*
X194101368Y-66213553D01*
X194325992Y-66140568D01*
X194536433Y-66033343D01*
X194727510Y-65894517D01*
X194894517Y-65727510D01*
X195033343Y-65536433D01*
X195140568Y-65325992D01*
X195213553Y-65101368D01*
X195238929Y-64941150D01*
X195250500Y-64868097D01*
X195250500Y-64631902D01*
X195213553Y-64398631D01*
X195140566Y-64174003D01*
X195033342Y-63963566D01*
X194894517Y-63772490D01*
X194727510Y-63605483D01*
X194536433Y-63466657D01*
X194325996Y-63359433D01*
X194101368Y-63286446D01*
X193868097Y-63249500D01*
X193868092Y-63249500D01*
X193631908Y-63249500D01*
X193631903Y-63249500D01*
X193398631Y-63286446D01*
X193174003Y-63359433D01*
X192963566Y-63466657D01*
X192854550Y-63545862D01*
X192772490Y-63605483D01*
X192772488Y-63605485D01*
X192772487Y-63605485D01*
X192712181Y-63665792D01*
X192650858Y-63699277D01*
X192581166Y-63694293D01*
X192525233Y-63652421D01*
X192500816Y-63586957D01*
X192500500Y-63578111D01*
X192500500Y-61624500D01*
X192520185Y-61557461D01*
X192572989Y-61511706D01*
X192624500Y-61500500D01*
X198676000Y-61500500D01*
X198743039Y-61520185D01*
G37*
%TD.AperFunction*%
%TD*%
M02*
